# 3ds Max Wavefront OBJ Exporter v0.97b - (c)2007 guruware
# File Created: 29.04.2015 07:45:45

#
# object Bip001_R_Clavicle
#

v  -0.0874 3.3804 0.0000
v  -0.0635 3.3529 0.0631
v  -0.0602 3.3019 0.0915
v  -0.0841 3.3214 0.0000
v  -0.0635 3.3529 -0.0631
v  -0.0602 3.3019 -0.0915
v  -0.2745 3.3443 0.0000
v  -0.2744 3.3210 0.0000
v  -0.2804 3.3014 0.0176
v  -0.2804 3.3259 0.0176
v  -0.2804 3.3259 -0.0176
v  -0.2804 3.3014 -0.0176
v  -0.1891 3.3204 0.0000
v  -0.1890 3.3009 0.0481
v  -0.1890 3.3009 -0.0481
v  -0.1891 3.3386 -0.0481
v  -0.1891 3.3565 0.0000
v  -0.1891 3.3386 0.0481
# 18 vertices

vn 0.7970 -0.0104 -0.6039
vn 0.6362 -0.2351 -0.7349
vn 0.7639 -0.0666 -0.6419
vn 0.8456 0.0918 -0.5259
vn 0.7931 -0.0609 0.6060
vn 0.7467 0.0811 0.6602
vn 0.7763 -0.0022 0.6304
vn 0.8107 -0.1417 0.5680
vn -0.7623 -0.0010 -0.6473
vn -0.7623 -0.0011 -0.6473
vn -0.7622 -0.0011 0.6473
vn -0.7622 -0.0010 0.6473
vn 0.0263 -0.8926 -0.4501
vn 0.0046 -0.9628 -0.2701
vn 0.0159 -0.9516 -0.3070
vn 0.0393 -0.8742 -0.4839
vn 0.0393 -0.8742 0.4839
vn 0.0159 -0.9516 0.3070
vn 0.0263 -0.8926 0.4501
vn 0.0046 -0.9628 0.2701
vn 0.0913 -0.6472 -0.7568
vn 0.1033 -0.6067 -0.7882
vn 0.1033 -0.6067 0.7882
vn 0.0913 -0.6472 0.7568
vn -0.1289 0.0272 -0.9913
vn -0.0670 0.3859 -0.9201
vn -0.0746 0.3478 -0.9346
vn -0.1330 -0.0002 -0.9911
vn -0.1322 -0.0002 -0.9912
vn -0.0725 0.8930 -0.4442
vn -0.1006 0.8219 -0.5607
vn -0.0956 0.8379 -0.5374
vn -0.0743 0.8900 -0.4499
vn -0.0743 0.8900 0.4499
vn -0.0956 0.8379 0.5374
vn -0.0725 0.8930 0.4442
vn -0.1006 0.8219 0.5607
vn -0.1386 0.6801 -0.7199
vn -0.1466 0.6447 -0.7503
vn -0.1466 0.6447 0.7502
vn -0.1386 0.6801 0.7199
vn -0.0959 0.0270 0.9950
vn -0.1253 0.3774 0.9175
vn -0.1190 0.3450 0.9310
vn -0.0884 -0.0001 0.9961
vn -0.1322 -0.0002 0.9912
# 46 vertex normals

vt -190.6212 27.6417 1873.4642
vt -138.3890 7.7197 1837.6857
vt -131.1161 -1.2452 1771.3624
vt -183.3359 27.6417 1796.7604
vt -138.3894 47.5638 1837.6857
vt -131.1171 56.5287 1771.3624
vt -599.7670 27.6417 1826.4822
vt -599.7308 27.6417 1796.1793
vt -612.7796 22.0852 1770.7535
vt -612.8180 22.0852 1802.5896
vt -612.8180 33.1980 1802.5896
vt -612.7797 33.1980 1770.7535
vt -412.9955 27.6417 1795.5011
vt -412.9645 12.4727 1770.0815
vt -412.9653 42.8107 1770.0815
vt -413.0243 42.8107 1819.0925
vt -413.0517 27.6417 1842.3397
vt -413.0235 12.4727 1819.0925
# 18 texture coords

g Bip001_R_Clavicle
f 1/1/1 2/2/2 3/3/3 
f 3/3/3 4/4/4 1/1/1 
f 5/5/5 1/1/6 4/4/7 
f 4/4/7 6/6/8 5/5/5 
f 7/7/9 8/8/9 9/9/9 
f 9/9/10 10/10/10 7/7/10 
f 11/11/11 12/12/11 8/8/11 
f 8/8/12 7/7/12 11/11/12 
f 13/13/13 4/4/14 3/3/15 
f 3/3/15 14/14/16 13/13/13 
f 15/15/17 6/6/18 13/13/19 
f 4/4/20 13/13/19 6/6/18 
f 8/8/21 13/13/13 14/14/16 
f 14/14/16 9/9/22 8/8/21 
f 12/12/23 15/15/17 8/8/24 
f 13/13/19 8/8/24 15/15/17 
f 16/16/25 5/5/26 6/6/27 
f 6/6/27 15/15/28 16/16/25 
f 11/11/29 16/16/25 15/15/28 
f 15/15/28 12/12/29 11/11/29 
f 17/17/30 1/1/31 5/5/32 
f 5/5/32 16/16/33 17/17/30 
f 18/18/34 2/2/35 17/17/36 
f 1/1/37 17/17/36 2/2/35 
f 7/7/38 17/17/30 16/16/33 
f 16/16/33 11/11/39 7/7/38 
f 10/10/40 18/18/34 7/7/41 
f 17/17/36 7/7/41 18/18/34 
f 14/14/42 3/3/43 2/2/44 
f 2/2/44 18/18/45 14/14/42 
f 9/9/46 14/14/42 18/18/45 
f 18/18/45 10/10/46 9/9/46 
# 32 faces

