# 3ds Max Wavefront OBJ Exporter v0.97b - (c)2007 guruware
# File Created: 29.04.2015 07:44:56

#
# object Bip001_Head
#

v  -0.0929 3.7182 0.1655
v  -0.0973 3.8114 0.1358
v  -0.1223 3.7182 0.1289
v  -0.1128 3.6798 0.1315
v  -0.1315 3.6764 -0.0263
v  -0.0973 3.6710 -0.1508
v  -0.1136 3.5709 -0.0281
v  -0.0847 3.4666 0.0388
v  -0.0562 3.5587 -0.1221
v  -0.0680 3.4759 -0.0900
v  -0.0973 3.7419 -0.1617
v  -0.1299 3.7419 -0.0738
v  -0.0973 3.8114 -0.1483
v  -0.0335 3.4497 0.1713
v  -0.0314 3.4594 0.2003
v  -0.0585 3.5148 0.1767
v  -0.0880 3.5518 0.1442
v  0.0680 3.4759 -0.0900
v  0.0847 3.4666 0.0388
v  -0.0000 3.6394 -0.1813
v  0.0562 3.5587 -0.1221
v  -0.0725 3.6508 0.1514
v  -0.0187 3.7182 0.1974
v  -0.1065 3.6089 0.1571
v  -0.0185 3.5831 0.2072
v  -0.0139 3.5896 0.2367
v  -0.0159 3.6077 0.2443
v  -0.0185 3.6129 0.1932
v  -0.0153 3.6644 0.2210
v  -0.0194 3.6592 0.1701
v  -0.0532 3.5711 0.1785
v  -0.1103 3.8114 0.0931
v  -0.1268 3.7427 0.0573
v  -0.1244 3.8114 0.0466
v  -0.1244 3.8114 -0.0715
v  0.0000 3.8114 0.1735
v  -0.0973 3.8510 0.0950
v  0.0000 3.8622 0.1230
v  -0.0973 3.8702 0.0257
v  -0.0000 3.8860 0.0372
v  -0.0973 3.8696 -0.0486
v  0.0000 3.8852 -0.0547
v  -0.0973 3.8494 -0.1073
v  0.0000 3.8602 -0.1274
v  0.0000 3.8114 -0.1782
v  -0.0000 3.7418 -0.1948
v  0.0335 3.4497 0.1713
v  0.0314 3.4594 0.2003
v  -0.0262 3.5477 0.2015
v  -0.0552 3.5546 0.1803
v  -0.0427 3.5129 0.1826
v  0.0000 3.5445 0.2069
v  -0.0223 3.5094 0.1957
v  0.0223 3.5094 0.1957
v  0.0929 3.7182 0.1655
v  0.1223 3.7182 0.1289
v  0.0973 3.8114 0.1358
v  0.1128 3.6798 0.1315
v  0.1315 3.6764 -0.0263
v  0.1136 3.5709 -0.0281
v  0.0973 3.6710 -0.1508
v  0.0973 3.7419 -0.1617
v  0.1299 3.7419 -0.0738
v  0.0973 3.8114 -0.1483
v  0.0585 3.5148 0.1767
v  0.0880 3.5518 0.1442
v  0.0153 3.6644 0.2210
v  0.0187 3.7182 0.1974
v  0.0159 3.6077 0.2443
v  0.0725 3.6508 0.1514
v  0.1065 3.6089 0.1571
v  0.0185 3.5831 0.2072
v  0.0139 3.5896 0.2367
v  0.0185 3.6129 0.1932
v  0.0194 3.6592 0.1701
v  0.0532 3.5711 0.1785
v  0.1244 3.8114 0.0466
v  0.1084 3.8114 0.0992
v  0.1268 3.7427 0.0573
v  0.1244 3.8114 -0.0715
v  0.0973 3.8510 0.0950
v  0.0973 3.8702 0.0257
v  0.0973 3.8696 -0.0486
v  0.0973 3.8494 -0.1073
v  0.0262 3.5477 0.2015
v  0.0427 3.5129 0.1826
v  0.0552 3.5546 0.1803
# 87 vertices

vn -0.5919 0.1531 0.7914
vn -0.6210 0.4369 0.6507
vn -0.9327 -0.0476 0.3575
vn -0.9306 -0.0802 0.3571
vn -0.9918 -0.1143 -0.0571
vn -0.6962 -0.2288 -0.6804
vn -0.9243 -0.3292 -0.1931
vn -0.9564 -0.2889 0.0435
vn -0.4753 -0.4390 -0.7625
vn -0.7756 -0.1208 -0.6196
vn -0.6536 0.0193 -0.7566
vn -0.9806 -0.0027 -0.1959
vn -0.6069 0.3877 -0.6938
vn -0.5474 -0.7795 0.3047
vn -0.4073 -0.4945 0.7679
vn -0.7043 -0.1685 0.6897
vn -0.8484 -0.3102 0.4289
vn 0.0000 -0.9974 -0.0721
vn -0.0000 -0.9974 -0.0721
vn 0.0000 -0.9953 -0.0967
vn 0.0000 -0.3186 -0.9479
vn 0.4753 -0.4390 -0.7625
vn -0.3985 -0.3465 0.8492
vn -0.2981 -0.3482 0.8887
vn -0.4414 -0.3185 0.8389
vn -0.5705 -0.3414 0.7470
vn -0.7774 -0.0393 0.6278
vn -0.9958 -0.0184 0.0891
vn -0.9573 -0.2013 0.2075
vn -0.9950 -0.0272 0.0965
vn -0.9974 0.0290 0.0653
vn -0.9969 0.0045 0.0783
vn -0.9963 -0.0024 0.0860
vn -0.9956 -0.0292 0.0887
vn -0.2899 0.3728 0.8815
vn -0.5513 0.0336 0.8336
vn -0.4480 0.2947 0.8441
vn -0.3373 0.4127 0.8461
vn -0.9131 0.2756 0.3004
vn -0.9974 -0.0098 0.0710
vn -0.9563 0.2694 0.1135
vn -0.9493 0.2677 -0.1646
vn -0.1263 0.3177 0.9397
vn -0.0000 0.5012 0.8653
vn -0.5841 0.7068 0.3992
vn -0.0000 0.8495 0.5276
vn -0.5673 0.8180 0.0954
vn -0.0000 0.9904 0.1380
vn -0.5583 0.8198 -0.1274
vn -0.0000 0.9851 -0.1722
vn -0.5535 0.7163 -0.4249
vn -0.0000 0.8473 -0.5310
vn 0.0000 0.4696 -0.8829
vn -0.0000 0.0462 -0.9989
vn 0.0000 -0.9920 -0.1264
vn 0.7756 -0.1208 -0.6196
vn 0.5473 -0.7795 0.3047
vn 0.4073 -0.4945 0.7679
vn -0.4288 0.1051 0.8973
vn -0.4161 -0.0966 0.9042
vn -0.6226 0.0592 0.7803
vn -0.4258 0.0441 0.9038
vn -0.0000 -0.1535 0.9882
vn -0.2686 -0.0388 0.9625
vn 0.2686 -0.0388 0.9625
vn -0.2278 -0.4063 0.8849
vn 0.5919 0.1531 0.7914
vn 0.9327 -0.0476 0.3575
vn 0.6210 0.4369 0.6507
vn 0.9306 -0.0802 0.3571
vn 0.9918 -0.1143 -0.0571
vn 0.9243 -0.3292 -0.1931
vn 0.6962 -0.2288 -0.6804
vn 0.9564 -0.2889 0.0435
vn 0.6536 0.0193 -0.7566
vn 0.9806 -0.0027 -0.1959
vn 0.6069 0.3877 -0.6938
vn 0.7043 -0.1684 0.6897
vn 0.8484 -0.3102 0.4289
vn -0.0000 0.3917 0.9201
vn 0.1263 0.3177 0.9397
vn 0.0000 0.3917 0.9201
vn 0.0000 0.0082 1.0000
vn 0.0000 0.0081 1.0000
vn 0.3985 -0.3465 0.8492
vn 0.4414 -0.3185 0.8389
vn 0.2981 -0.3482 0.8887
vn 0.5705 -0.3414 0.7470
vn 0.7774 -0.0393 0.6278
vn 0.9958 -0.0184 0.0891
vn 0.9950 -0.0272 0.0965
vn 0.9573 -0.2013 0.2075
vn 0.9974 0.0290 0.0653
vn 0.9969 0.0045 0.0783
vn 0.9963 -0.0024 0.0860
vn 0.9956 -0.0292 0.0887
vn 0.0000 -0.3908 0.9205
vn -0.0000 -0.3908 0.9205
vn 0.2899 0.3728 0.8815
vn 0.5513 0.0336 0.8336
vn 0.4480 0.2947 0.8440
vn 0.4288 0.1051 0.8973
vn 0.3373 0.4127 0.8461
vn 0.9563 0.2694 0.1135
vn 0.9131 0.2756 0.3004
vn 0.9974 -0.0098 0.0710
vn 0.9493 0.2677 -0.1646
vn 0.5841 0.7068 0.3992
vn 0.5673 0.8180 0.0954
vn 0.5583 0.8198 -0.1274
vn 0.5535 0.7163 -0.4249
vn -0.0000 -0.9762 0.2170
vn 0.4161 -0.0966 0.9042
vn 0.4258 0.0441 0.9038
vn 0.6226 0.0592 0.7803
vn 0.2278 -0.4063 0.8849
# 116 vertex normals

vt -202.5949 -24.5817 2312.7732
vt -212.2556 -15.2182 2434.0200
vt -266.9384 -13.0434 2312.7725
vt -246.2337 -13.8465 2262.8354
vt -287.1252 35.9277 2258.3806
vt -212.2555 75.2372 2251.4399
vt -247.8594 36.4979 2121.1992
vt -184.7117 15.3829 1985.5271
vt -122.4515 66.1733 2105.3027
vt -148.2712 56.0408 1997.6434
vt -212.2554 78.6701 2343.5930
vt -283.6436 50.9301 2343.5811
vt -212.2555 74.4373 2434.0103
vt -72.8548 -26.4337 1963.5710
vt -68.1000 -35.5852 1976.1688
vt -127.3603 -28.1203 2048.3252
vt -191.8612 -17.8740 2096.3591
vt 149.2708 56.0409 1997.6434
vt 185.7114 15.3828 1985.5271
vt 0.4997 84.8545 2210.3696
vt 123.4513 66.1732 2105.3027
vt -158.1599 -20.1535 2225.1484
vt -40.4308 -34.6417 2312.7710
vt -232.4086 -21.9345 2170.6992
vt -40.0581 -37.7571 2137.0559
vt -29.9298 -47.0470 2145.5654
vt -34.2551 -49.4676 2169.0635
vt -39.8528 -33.3192 2175.9131
vt -32.9805 -42.0913 2242.8882
vt -41.8399 -26.0409 2236.0864
vt -115.9448 -28.6962 2121.5408
vt -240.6845 -1.7457 2434.0188
vt -276.7175 9.5456 2344.6697
vt -271.6740 12.9408 2434.0168
vt -271.6736 50.2185 2434.0156
vt 0.5002 -27.1162 2434.0293
vt -212.2555 -2.3532 2485.4885
vt 0.5004 -11.1910 2500.0879
vt -212.2561 19.5441 2510.4868
vt 0.4998 15.9146 2531.0317
vt -212.2559 42.9745 2509.6626
vt 0.5001 44.9180 2530.0110
vt -212.2556 61.4890 2483.4280
vt 0.5004 67.8361 2497.5371
vt 0.5006 83.8643 2434.0171
vt 0.4997 89.1040 2343.5505
vt 73.8544 -26.4337 1963.5717
vt 69.1003 -35.5852 1976.1688
vt -56.8020 -35.9424 2091.0645
vt -120.3017 -29.2667 2100.0796
vt -92.9563 -29.9820 2045.8535
vt 0.5001 -37.6427 2086.8652
vt -48.3116 -34.1206 2041.2522
vt 49.3119 -34.1207 2041.2522
vt 203.5945 -24.5818 2312.7732
vt 267.9382 -13.0433 2312.7732
vt 213.2554 -15.2183 2434.0205
vt 247.2335 -13.8464 2262.8354
vt 288.1252 35.9277 2258.3806
vt 248.8595 36.4977 2121.1992
vt 213.2556 75.2371 2251.4399
vt 213.2556 78.6701 2343.5930
vt 284.6440 50.9299 2343.5811
vt 213.2556 74.4372 2434.0107
vt 128.3598 -28.1204 2048.3252
vt 192.8619 -17.8740 2096.3591
vt 33.9807 -42.0913 2242.8882
vt 41.4301 -34.6416 2312.7710
vt 35.2550 -49.4675 2169.0635
vt 159.1596 -20.1536 2225.1484
vt 233.4083 -21.9345 2170.6992
vt 41.0584 -37.7571 2137.0559
vt 30.9298 -47.0470 2145.5654
vt 40.8522 -33.3192 2175.9131
vt 42.8394 -26.0407 2236.0864
vt 116.9443 -28.6962 2121.5413
vt 272.6735 12.9407 2434.0176
vt 237.6642 -3.6509 2434.0188
vt 277.7169 9.5456 2344.6697
vt 272.6739 50.2184 2434.0156
vt 213.2556 -2.3533 2485.4885
vt 213.2558 19.5440 2510.4868
vt 213.2561 42.9745 2509.6626
vt 213.2563 61.4889 2483.4287
vt 57.8023 -35.9424 2091.0645
vt 93.9557 -29.9820 2045.8541
vt 121.3012 -29.2667 2100.0796
# 87 texture coords

g Bip001_Head
f 1/1/1 2/2/2 3/3/3 
f 3/3/3 4/4/4 1/1/1 
f 5/5/5 6/6/6 7/7/7 
f 7/7/7 4/4/4 5/5/5 
f 8/8/8 9/9/9 10/10/10 
f 7/7/7 9/9/9 8/8/8 
f 9/9/9 7/7/7 6/6/6 
f 11/11/11 6/6/6 12/12/12 
f 12/12/12 13/13/13 11/11/11 
f 8/8/8 14/14/14 15/15/15 
f 8/8/8 15/15/15 16/16/16 
f 8/8/8 16/16/16 17/17/17 
f 10/10/18 18/18/19 19/19/20 
f 19/19/20 8/8/20 10/10/18 
f 9/9/9 20/20/21 21/21/22 
f 6/6/6 20/20/21 9/9/9 
f 22/22/23 23/23/24 1/1/25 
f 1/1/25 4/4/26 22/22/23 
f 24/24/27 4/4/4 7/7/7 
f 17/17/17 24/24/27 7/7/7 
f 17/17/17 7/7/7 8/8/8 
f 25/25/28 26/26/29 27/27/30 
f 28/28/31 25/25/28 27/27/30 
f 28/28/31 27/27/30 29/29/32 
f 30/30/33 28/28/31 29/29/32 
f 30/30/33 29/29/32 23/23/34 
f 22/22/35 4/4/4 24/24/27 
f 24/24/27 17/17/17 31/31/36 
f 24/24/27 31/31/36 28/28/37 
f 30/30/38 24/24/27 28/28/37 
f 32/32/39 3/3/3 2/2/2 
f 33/33/40 3/3/3 34/34/41 
f 12/12/12 34/34/41 35/35/42 
f 5/5/5 33/33/40 12/12/12 
f 5/5/5 4/4/4 33/33/40 
f 6/6/6 5/5/5 12/12/12 
f 2/2/2 1/1/1 23/23/43 
f 23/23/43 36/36/44 2/2/2 
f 37/37/45 2/2/2 36/36/44 
f 36/36/44 38/38/46 37/37/45 
f 39/39/47 37/37/45 38/38/46 
f 38/38/46 40/40/48 39/39/47 
f 41/41/49 39/39/47 40/40/48 
f 40/40/48 42/42/50 41/41/49 
f 43/43/51 41/41/49 42/42/50 
f 42/42/50 44/44/52 43/43/51 
f 13/13/13 43/43/51 44/44/52 
f 44/44/52 45/45/53 13/13/13 
f 11/11/11 13/13/13 45/45/53 
f 45/45/53 46/46/54 11/11/11 
f 6/6/6 11/11/11 46/46/54 
f 46/46/54 20/20/21 6/6/6 
f 37/37/45 39/39/47 34/34/41 
f 32/32/39 2/2/2 37/37/45 
f 39/39/47 35/35/42 34/34/41 
f 41/41/49 35/35/42 39/39/47 
f 43/43/51 13/13/13 35/35/42 
f 35/35/42 41/41/49 43/43/51 
f 12/12/12 35/35/42 13/13/13 
f 14/14/55 8/8/20 19/19/20 
f 19/19/20 47/47/55 14/14/55 
f 10/10/10 9/9/9 21/21/22 
f 21/21/22 18/18/56 10/10/10 
f 15/15/15 14/14/14 47/47/57 
f 47/47/57 48/48/58 15/15/15 
f 12/12/12 33/33/40 34/34/41 
f 4/4/4 3/3/3 33/33/40 
f 28/28/37 31/31/36 25/25/59 
f 49/49/60 50/50/61 51/51/62 
f 25/25/59 49/49/60 52/52/63 
f 49/49/60 31/31/36 50/50/61 
f 52/52/63 49/49/60 53/53/64 
f 52/52/63 53/53/64 54/54/65 
f 49/49/60 51/51/62 53/53/64 
f 17/17/17 50/50/61 31/31/36 
f 50/50/61 17/17/17 16/16/16 
f 25/25/59 31/31/36 49/49/60 
f 51/51/62 50/50/61 16/16/16 
f 16/16/16 15/15/15 51/51/62 
f 51/51/62 15/15/15 53/53/64 
f 53/53/64 15/15/15 48/48/58 
f 53/53/64 48/48/58 54/54/65 
f 30/30/38 22/22/35 24/24/27 
f 23/23/24 22/22/23 30/30/66 
f 55/55/67 56/56/68 57/57/69 
f 56/56/68 55/55/67 58/58/70 
f 59/59/71 60/60/72 61/61/73 
f 60/60/72 59/59/71 58/58/70 
f 19/19/74 18/18/56 21/21/22 
f 60/60/72 19/19/74 21/21/22 
f 21/21/22 61/61/73 60/60/72 
f 62/62/75 63/63/76 61/61/73 
f 63/63/76 62/62/75 64/64/77 
f 19/19/74 48/48/58 47/47/57 
f 19/19/74 65/65/78 48/48/58 
f 19/19/74 66/66/79 65/65/78 
f 67/67/80 68/68/81 29/29/82 
f 69/69/83 29/29/82 27/27/84 
f 67/67/80 29/29/82 69/69/83 
f 61/61/73 21/21/22 20/20/21 
f 70/70/85 55/55/86 68/68/87 
f 55/55/86 70/70/85 58/58/88 
f 71/71/89 60/60/72 58/58/70 
f 66/66/79 60/60/72 71/71/89 
f 66/66/79 19/19/74 60/60/72 
f 72/72/90 69/69/91 73/73/92 
f 74/74/93 69/69/91 72/72/90 
f 74/74/93 67/67/94 69/69/91 
f 75/75/95 67/67/94 74/74/93 
f 75/75/95 68/68/96 67/67/94 
f 69/69/83 26/26/97 73/73/98 
f 26/26/97 69/69/83 27/27/84 
f 70/70/99 71/71/89 58/58/70 
f 71/71/89 76/76/100 66/66/79 
f 76/76/100 74/74/101 72/72/102 
f 75/75/103 74/74/101 71/71/89 
f 77/77/104 78/78/105 56/56/68 
f 79/79/106 77/77/104 56/56/68 
f 63/63/76 80/80/107 77/77/104 
f 59/59/71 63/63/76 79/79/106 
f 59/59/71 79/79/106 58/58/70 
f 61/61/73 63/63/76 59/59/71 
f 57/57/69 68/68/81 55/55/67 
f 68/68/81 57/57/69 36/36/44 
f 81/81/108 36/36/44 57/57/69 
f 36/36/44 81/81/108 38/38/46 
f 82/82/109 38/38/46 81/81/108 
f 38/38/46 82/82/109 40/40/48 
f 83/83/110 40/40/48 82/82/109 
f 40/40/48 83/83/110 42/42/50 
f 84/84/111 42/42/50 83/83/110 
f 42/42/50 84/84/111 44/44/52 
f 64/64/77 44/44/52 84/84/111 
f 44/44/52 64/64/77 45/45/53 
f 62/62/75 45/45/53 64/64/77 
f 45/45/53 62/62/75 46/46/54 
f 61/61/73 46/46/54 62/62/75 
f 46/46/54 61/61/73 20/20/21 
f 81/81/108 77/77/104 82/82/109 
f 77/77/104 81/81/108 78/78/105 
f 82/82/109 77/77/104 80/80/107 
f 83/83/110 82/82/109 80/80/107 
f 84/84/111 80/80/107 64/64/77 
f 80/80/107 84/84/111 83/83/110 
f 63/63/76 64/64/77 80/80/107 
f 73/73/112 25/25/112 72/72/112 
f 25/25/112 73/73/112 26/26/112 
f 36/36/44 23/23/43 68/68/81 
f 63/63/76 77/77/104 79/79/106 
f 58/58/70 79/79/106 56/56/68 
f 29/29/82 68/68/81 23/23/43 
f 71/71/89 74/74/101 76/76/100 
f 85/85/113 86/86/114 87/87/115 
f 72/72/102 52/52/63 85/85/113 
f 52/52/63 72/72/102 25/25/59 
f 85/85/113 87/87/115 76/76/100 
f 52/52/63 54/54/65 85/85/113 
f 85/85/113 54/54/65 86/86/114 
f 66/66/79 76/76/100 87/87/115 
f 87/87/115 65/65/78 66/66/79 
f 72/72/102 85/85/113 76/76/100 
f 86/86/114 65/65/78 87/87/115 
f 65/65/78 86/86/114 48/48/58 
f 86/86/114 54/54/65 48/48/58 
f 75/75/103 71/71/89 70/70/99 
f 68/68/87 75/75/116 70/70/85 
f 34/34/41 32/32/39 37/37/45 
f 34/34/41 3/3/3 32/32/39 
f 78/78/105 81/81/108 57/57/69 
f 78/78/105 57/57/69 56/56/68 
# 170 faces

