# 3ds Max Wavefront OBJ Exporter v0.97b - (c)2007 guruware
# File Created: 29.04.2015 07:47:40

#
# object Bip001_Spine3
#

v  -0.0000 3.1348 -0.0503
v  -0.0105 3.1348 -0.0332
v  -0.0283 3.1640 -0.1064
v  -0.0000 3.1640 -0.1298
v  -0.0561 3.1348 -0.0169
v  -0.1898 3.1640 -0.0354
v  -0.0569 3.1348 0.0148
v  -0.1923 3.1640 0.0301
v  -0.0252 3.1348 0.0337
v  -0.0680 3.1640 0.1056
v  -0.0000 3.1348 0.0255
v  -0.0000 3.1640 0.0797
v  0.0252 3.1348 0.0337
v  0.0680 3.1640 0.1056
v  0.0569 3.1348 0.0148
v  0.1923 3.1640 0.0301
v  0.0561 3.1348 -0.0169
v  0.1898 3.1640 -0.0354
v  0.0105 3.1348 -0.0332
v  0.0283 3.1640 -0.1064
v  -0.0283 3.2372 -0.1064
v  -0.0000 3.2372 -0.1298
v  -0.2050 3.2372 -0.0354
v  -0.2076 3.2372 0.0301
v  -0.0680 3.2372 0.1056
v  -0.0000 3.2372 0.0797
v  0.0680 3.2372 0.1056
v  0.2076 3.2372 0.0301
v  0.2050 3.2372 -0.0354
v  0.0283 3.2372 -0.1064
v  -0.0283 3.2797 -0.0726
v  -0.0000 3.2797 -0.1067
v  -0.1472 3.2797 -0.0354
v  -0.1491 3.2797 0.0301
v  -0.0680 3.2797 0.0726
v  -0.0000 3.2797 0.0549
v  0.0680 3.2797 0.0726
v  0.1491 3.2797 0.0301
v  0.1472 3.2797 -0.0354
v  0.0283 3.2797 -0.0726
v  0.0000 3.0903 -0.0197
v  -0.0138 3.0903 -0.0140
v  -0.0195 3.0903 -0.0002
v  -0.0138 3.0903 0.0136
v  0.0000 3.0903 0.0193
v  0.0138 3.0903 0.0136
v  0.0195 3.0903 -0.0002
v  0.0138 3.0903 -0.0140
v  0.0000 3.0708 -0.0278
v  -0.0195 3.0708 -0.0197
v  -0.0276 3.0708 -0.0002
v  -0.0195 3.0708 0.0193
v  0.0000 3.0708 0.0274
v  0.0195 3.0708 0.0193
v  0.0276 3.0708 -0.0002
v  0.0195 3.0708 -0.0197
v  0.0000 3.0513 -0.0197
v  -0.0138 3.0513 -0.0140
v  -0.0195 3.0513 -0.0002
v  -0.0138 3.0513 0.0136
v  0.0000 3.0513 0.0193
v  0.0138 3.0513 0.0136
v  0.0195 3.0513 -0.0002
v  0.0138 3.0513 -0.0140
v  0.0000 3.0432 -0.0002
# 65 vertices

vn -0.3862 -0.8835 -0.2651
vn -0.4090 -0.8775 -0.2505
vn -0.2893 -0.9011 -0.3230
vn -0.2741 -0.9027 -0.3316
vn -0.1464 -0.9250 -0.3506
vn -0.1425 -0.9049 -0.4010
vn -0.1465 -0.9251 -0.3503
vn -0.1475 -0.9305 -0.3352
vn -0.2117 -0.9773 -0.0057
vn -0.2114 -0.9774 -0.0049
vn -0.2123 -0.9772 -0.0076
vn -0.2125 -0.9771 -0.0081
vn -0.1702 -0.9439 0.2828
vn -0.1685 -0.9442 0.2831
vn -0.1710 -0.9439 0.2827
vn -0.1718 -0.9437 0.2826
vn 0.1614 -0.8707 0.4645
vn 0.1524 -0.8700 0.4689
vn 0.1696 -0.8714 0.4604
vn 0.1748 -0.8717 0.4578
vn -0.1624 -0.8747 0.4566
vn -0.1445 -0.8839 0.4448
vn -0.1704 -0.8705 0.4618
vn -0.1783 -0.8662 0.4669
vn 0.1711 -0.9436 0.2835
vn 0.1710 -0.9425 0.2873
vn 0.1711 -0.9438 0.2827
vn 0.1712 -0.9442 0.2815
vn 0.2126 -0.9771 -0.0058
vn 0.2129 -0.9771 -0.0049
vn 0.2119 -0.9773 -0.0076
vn 0.2118 -0.9773 -0.0080
vn 0.1420 -0.9271 -0.3468
vn 0.1216 -0.9318 -0.3420
vn 0.1421 -0.9271 -0.3469
vn 0.1538 -0.9242 -0.3496
vn 0.4005 -0.8642 -0.3046
vn 0.4907 -0.8179 -0.3004
vn 0.2835 -0.9090 -0.3055
vn 0.2521 -0.9184 -0.3049
vn -0.6371 0.0000 -0.7708
vn -0.6371 -0.0000 -0.7708
vn -0.3801 -0.0195 -0.9247
vn -0.4014 -0.0833 -0.9121
vn -0.3942 -0.0612 -0.9170
vn -0.3732 0.0000 -0.9278
vn -0.9781 -0.2044 -0.0384
vn -0.9779 -0.2056 -0.0371
vn -0.9782 -0.2042 -0.0387
vn -0.9784 -0.2030 -0.0400
vn -0.4864 -0.0731 0.8707
vn -0.5195 -0.0000 0.8544
vn -0.5065 -0.0297 0.8617
vn -0.4735 -0.0995 0.8751
vn 0.3567 -0.0000 0.9342
vn 0.3567 0.0000 0.9342
vn -0.3567 0.0000 0.9342
vn 0.4878 -0.0300 0.8724
vn 0.5165 -0.1086 0.8494
vn 0.5046 -0.0750 0.8601
vn 0.4759 0.0000 0.8795
vn 0.9782 -0.2042 -0.0384
vn 0.9785 -0.2030 -0.0371
vn 0.9781 -0.2044 -0.0387
vn 0.9778 -0.2056 -0.0400
vn 0.3792 -0.0600 -0.9234
vn 0.4028 -0.0000 -0.9153
vn 0.3954 -0.0194 -0.9183
vn 0.3721 -0.0772 -0.9250
vn 0.6371 -0.0000 -0.7708
vn -0.6303 0.4410 -0.6389
vn -0.5429 0.5233 -0.6568
vn -0.6551 0.4146 -0.6316
vn -0.7263 0.3292 -0.6035
vn -0.2625 0.5692 -0.7792
vn -0.3327 0.4529 -0.8272
vn -0.3190 0.4774 -0.8188
vn -0.2380 0.6053 -0.7596
vn -0.5893 0.8076 -0.0209
vn -0.5870 0.8093 -0.0240
vn -0.5896 0.8074 -0.0205
vn -0.5920 0.8057 -0.0174
vn -0.3920 0.5505 0.7370
vn -0.3929 0.5643 0.7261
vn -0.3926 0.5599 0.7297
vn -0.3913 0.5395 0.7456
vn 0.2468 0.5549 0.7944
vn 0.3130 0.4794 0.8199
vn 0.2685 0.5311 0.8036
vn 0.2022 0.6010 0.7732
vn -0.2485 0.5322 0.8093
vn -0.2886 0.5876 0.7560
vn -0.2635 0.5531 0.7903
vn -0.2202 0.4923 0.8421
vn 0.3880 0.5606 0.7315
vn 0.3979 0.5486 0.7353
vn 0.3950 0.5521 0.7343
vn 0.3828 0.5669 0.7294
vn 0.5896 0.8074 -0.0209
vn 0.5919 0.8056 -0.0242
vn 0.5893 0.8076 -0.0205
vn 0.5870 0.8094 -0.0173
vn 0.2884 0.4663 -0.8363
vn 0.3001 0.5944 -0.7460
vn 0.2980 0.5660 -0.7687
vn 0.2769 0.3768 -0.8839
vn 0.6326 0.4181 -0.6519
vn 0.5873 0.3876 -0.7105
vn 0.6502 0.4300 -0.6263
vn 0.6854 0.4538 -0.5695
vn 0.0000 1.0000 0.0000
vn -0.0000 1.0000 -0.0000
vn 0.0000 1.0000 -0.0000
vn -0.0000 1.0000 0.0000
vn -0.8028 -0.3375 -0.4916
vn 0.1404 -0.3957 -0.9076
vn -0.3219 -0.3510 -0.8793
vn -0.3148 -0.3416 -0.8856
vn -0.1166 -0.4118 -0.9038
vn -0.3522 -0.3910 -0.8503
vn -0.7372 -0.6727 -0.0623
vn -0.7241 -0.6895 -0.0167
vn -0.7681 -0.6025 -0.2169
vn -0.7761 -0.5425 -0.3215
vn -0.5136 -0.5649 0.6459
vn -0.5156 -0.5172 0.6831
vn -0.6854 -0.6706 0.2839
vn -0.3345 -0.3648 0.8689
vn -0.4371 -0.4600 0.7729
vn 0.3064 -0.1306 0.9429
vn 0.3345 -0.3648 0.8689
vn -0.3064 -0.1307 0.9429
vn 0.5136 -0.5649 0.6458
vn 0.4371 -0.4600 0.7729
vn 0.6854 -0.6706 0.2839
vn 0.5156 -0.5172 0.6831
vn 0.7598 -0.6474 -0.0603
vn 0.7690 -0.6390 -0.0178
vn 0.7124 -0.6674 -0.2171
vn 0.6855 -0.6705 -0.2839
vn 0.3216 -0.3541 -0.8782
vn 0.3130 -0.3558 -0.8806
vn 0.3410 -0.3502 -0.8724
vn 0.8028 -0.3375 -0.4916
vn -0.3574 0.3574 -0.8629
vn -0.8629 0.3574 -0.3574
vn -0.8629 0.3574 0.3574
vn -0.3574 0.3574 0.8629
vn 0.3574 0.3574 0.8629
vn 0.8629 0.3574 0.3574
vn 0.8629 0.3574 -0.3574
vn 0.3574 0.3574 -0.8629
vn -0.3574 -0.3574 -0.8629
vn -0.8629 -0.3574 -0.3574
vn -0.8629 -0.3574 0.3574
vn -0.3574 -0.3574 0.8629
vn 0.3574 -0.3574 0.8629
vn 0.8629 -0.3574 0.3574
vn 0.8629 -0.3574 -0.3574
vn 0.3574 -0.3574 -0.8629
vn -0.1566 -0.9125 -0.3780
vn -0.3780 -0.9125 -0.1566
vn -0.3780 -0.9125 0.1566
vn -0.1566 -0.9125 0.3780
vn 0.1566 -0.9125 0.3780
vn 0.3780 -0.9125 0.1566
vn 0.3780 -0.9125 -0.1566
vn 0.1566 -0.9125 -0.3780
# 168 vertex normals

vt 0.4985 43.5113 1554.0913
vt -22.4204 38.1104 1554.0913
vt -61.3822 61.2303 1592.0863
vt 0.4988 68.6114 1592.0862
vt -122.2552 32.9899 1554.0912
vt -414.5692 38.8022 1592.0864
vt -123.8588 22.9666 1554.0914
vt -419.9919 18.1542 1592.0861
vt -54.5499 17.0134 1554.0912
vt -148.1316 -5.6978 1592.0863
vt 0.4982 19.5944 1554.0913
vt 0.4986 2.4902 1592.0862
vt 55.5468 17.0133 1554.0912
vt 149.1286 -5.6978 1592.0863
vt 124.8559 22.9665 1554.0914
vt 420.9888 18.1542 1592.0861
vt 123.2520 32.9898 1554.0912
vt 415.5661 38.8022 1592.0864
vt 23.4173 38.1104 1554.0913
vt 62.3791 61.2302 1592.0863
vt -61.3822 61.2302 1687.2400
vt 0.4988 68.6114 1687.2402
vt -447.7744 38.8023 1687.2401
vt -453.6310 18.1543 1687.2401
vt -148.1316 -5.6978 1687.2400
vt 0.4986 2.4902 1687.2402
vt 149.1286 -5.6978 1687.2400
vt 454.6280 18.1542 1687.2401
vt 448.7712 38.8022 1687.2401
vt 62.3791 61.2303 1687.2400
vt -61.3823 50.5559 1742.4496
vt 0.4987 61.3020 1742.4498
vt -321.4159 38.8022 1742.4496
vt -325.6216 18.1543 1742.4497
vt -148.1320 4.7148 1742.4497
vt 0.4987 10.3230 1742.4497
vt 149.1287 4.7148 1742.4497
vt 326.6186 18.1542 1742.4497
vt 322.4128 38.8022 1742.4496
vt 62.3795 50.5559 1742.4496
vt 0.5006 33.8669 1496.2031
vt -29.7014 32.0618 1496.2032
vt -42.2113 27.7039 1496.2031
vt -29.7010 23.3459 1496.2032
vt 0.5004 21.5408 1496.2031
vt 30.7019 23.3460 1496.2032
vt 43.2117 27.7039 1496.2031
vt 30.7020 32.0618 1496.2032
vt 0.5006 36.4198 1470.8048
vt -42.2112 33.8669 1470.8048
vt -59.9029 27.7039 1470.8048
vt -42.2114 21.5408 1470.8048
vt 0.5004 18.9880 1470.8048
vt 43.2122 21.5409 1470.8048
vt 60.9039 27.7039 1470.8048
vt 43.2118 33.8670 1470.8048
vt 0.5006 33.8670 1445.4061
vt -29.7014 32.0618 1445.4064
vt -42.2113 27.7039 1445.4061
vt -29.7010 23.3460 1445.4064
vt 0.5004 21.5409 1445.4063
vt 30.7019 23.3460 1445.4064
vt 43.2117 27.7039 1445.4061
vt 30.7020 32.0619 1445.4064
vt 0.5005 27.7039 1434.8859
# 65 texture coords

g Bip001_Spine3
f 1/1/1 2/2/2 3/3/3 
f 1/1/1 3/3/3 4/4/4 
f 2/2/5 5/5/6 6/6/7 
f 2/2/5 6/6/7 3/3/8 
f 5/5/9 7/7/10 8/8/11 
f 5/5/9 8/8/11 6/6/12 
f 7/7/13 9/9/14 10/10/15 
f 7/7/13 10/10/15 8/8/16 
f 9/9/17 11/11/18 12/12/19 
f 9/9/17 12/12/19 10/10/20 
f 11/11/21 13/13/22 14/14/23 
f 11/11/21 14/14/23 12/12/24 
f 13/13/25 15/15/26 16/16/27 
f 13/13/25 16/16/27 14/14/28 
f 15/15/29 17/17/30 18/18/31 
f 15/15/29 18/18/31 16/16/32 
f 17/17/33 19/19/34 20/20/35 
f 17/17/33 20/20/35 18/18/36 
f 19/19/37 1/1/38 4/4/39 
f 19/19/37 4/4/39 20/20/40 
f 4/4/41 3/3/41 21/21/41 
f 4/4/41 21/21/41 22/22/42 
f 3/3/43 6/6/44 23/23/45 
f 3/3/43 23/23/45 21/21/46 
f 6/6/47 8/8/48 24/24/49 
f 6/6/47 24/24/49 23/23/50 
f 8/8/51 10/10/52 25/25/53 
f 8/8/51 25/25/53 24/24/54 
f 10/10/55 12/12/56 26/26/55 
f 10/10/55 26/26/55 25/25/55 
f 12/12/57 14/14/57 27/27/57 
f 12/12/57 27/27/57 26/26/57 
f 14/14/58 16/16/59 28/28/60 
f 14/14/58 28/28/60 27/27/61 
f 16/16/62 18/18/63 29/29/64 
f 16/16/62 29/29/64 28/28/65 
f 18/18/66 20/20/67 30/30/68 
f 18/18/66 30/30/68 29/29/69 
f 20/20/70 4/4/70 22/22/70 
f 20/20/70 22/22/70 30/30/70 
f 22/22/71 21/21/72 31/31/73 
f 22/22/71 31/31/73 32/32/74 
f 21/21/75 23/23/76 33/33/77 
f 21/21/75 33/33/77 31/31/78 
f 23/23/79 24/24/80 34/34/81 
f 23/23/79 34/34/81 33/33/82 
f 24/24/83 25/25/84 35/35/85 
f 24/24/83 35/35/85 34/34/86 
f 25/25/87 26/26/88 36/36/89 
f 25/25/87 36/36/89 35/35/90 
f 26/26/91 27/27/92 37/37/93 
f 26/26/91 37/37/93 36/36/94 
f 27/27/95 28/28/96 38/38/97 
f 27/27/95 38/38/97 37/37/98 
f 28/28/99 29/29/100 39/39/101 
f 28/28/99 39/39/101 38/38/102 
f 29/29/103 30/30/104 40/40/105 
f 29/29/103 40/40/105 39/39/106 
f 30/30/107 22/22/108 32/32/109 
f 30/30/107 32/32/109 40/40/110 
f 36/36/111 40/40/111 32/32/111 
f 36/36/112 31/31/112 33/33/112 
f 36/36/113 33/33/113 34/34/113 
f 36/36/114 34/34/114 35/35/114 
f 32/32/114 31/31/114 36/36/114 
f 39/39/113 40/40/113 36/36/113 
f 38/38/112 39/39/112 36/36/112 
f 37/37/111 38/38/111 36/36/111 
f 2/2/115 1/1/115 41/41/116 
f 5/5/117 2/2/118 41/41/119 
f 41/41/119 42/42/120 5/5/117 
f 7/7/121 5/5/122 42/42/123 
f 42/42/123 43/43/124 7/7/121 
f 44/44/125 7/7/126 43/43/127 
f 44/44/125 45/45/128 9/9/129 
f 11/11/130 9/9/130 45/45/131 
f 13/13/132 11/11/132 45/45/128 
f 46/46/133 13/13/134 45/45/131 
f 46/46/133 47/47/135 15/15/136 
f 17/17/137 15/15/138 47/47/139 
f 47/47/139 48/48/140 17/17/137 
f 19/19/141 17/17/142 48/48/143 
f 48/48/143 41/41/116 19/19/141 
f 1/1/144 19/19/144 41/41/119 
f 41/41/145 49/49/145 50/50/145 
f 41/41/145 50/50/145 42/42/145 
f 42/42/146 50/50/146 51/51/146 
f 42/42/146 51/51/146 43/43/146 
f 43/43/147 51/51/147 52/52/147 
f 43/43/147 52/52/147 44/44/147 
f 44/44/148 52/52/148 53/53/148 
f 44/44/148 53/53/148 45/45/148 
f 45/45/149 53/53/149 54/54/149 
f 45/45/149 54/54/149 46/46/149 
f 46/46/150 54/54/150 55/55/150 
f 46/46/150 55/55/150 47/47/150 
f 47/47/151 55/55/151 56/56/151 
f 47/47/151 56/56/151 48/48/151 
f 48/48/152 56/56/152 49/49/152 
f 48/48/152 49/49/152 41/41/152 
f 49/49/153 57/57/153 58/58/153 
f 49/49/153 58/58/153 50/50/153 
f 50/50/154 58/58/154 59/59/154 
f 50/50/154 59/59/154 51/51/154 
f 51/51/155 59/59/155 60/60/155 
f 51/51/155 60/60/155 52/52/155 
f 52/52/156 60/60/156 61/61/156 
f 52/52/156 61/61/156 53/53/156 
f 53/53/157 61/61/157 62/62/157 
f 53/53/157 62/62/157 54/54/157 
f 54/54/158 62/62/158 63/63/158 
f 54/54/158 63/63/158 55/55/158 
f 55/55/159 63/63/159 64/64/159 
f 55/55/159 64/64/159 56/56/159 
f 56/56/160 64/64/160 57/57/160 
f 56/56/160 57/57/160 49/49/160 
f 65/65/161 58/58/161 57/57/161 
f 65/65/162 59/59/162 58/58/162 
f 65/65/163 60/60/163 59/59/163 
f 65/65/164 61/61/164 60/60/164 
f 65/65/165 62/62/165 61/61/165 
f 65/65/166 63/63/166 62/62/166 
f 65/65/167 64/64/167 63/63/167 
f 65/65/168 57/57/168 64/64/168 
f 13/13/134 46/46/133 15/15/136 
f 7/7/126 44/44/125 9/9/129 
# 126 faces

