# 3ds Max Wavefront OBJ Exporter v0.97b - (c)2007 guruware
# File Created: 29.04.2015 07:49:08

#
# object Bip001_R_Thigh
#

v  -0.1427 1.6257 -0.0466
v  -0.2218 1.6257 -0.0466
v  -0.1166 1.8618 -0.0656
v  -0.1956 1.8618 -0.0656
v  -0.1470 1.2250 0.0364
v  -0.2312 1.2250 0.0364
v  -0.1465 1.2020 0.0779
v  -0.2318 1.2020 0.0779
v  -0.1465 1.1682 0.0846
v  -0.2318 1.1682 0.0846
v  -0.1465 1.1682 0.1065
v  -0.2318 1.1682 0.1065
v  -0.1465 1.2135 0.1151
v  -0.2318 1.2135 0.1151
v  -0.1470 1.2266 0.1474
v  -0.2312 1.2266 0.1474
v  -0.1427 1.4947 0.1492
v  -0.2431 1.4947 0.1492
v  -0.1166 1.9832 0.1090
v  -0.2170 1.9832 0.1090
v  -0.1470 1.2257 0.0795
v  -0.2527 1.9212 0.0198
v  -0.2789 1.5614 0.0496
v  -0.2312 1.2258 0.0918
v  -0.1564 1.9495 -0.0218
v  -0.1552 1.9991 0.0449
v  -0.2235 1.9495 -0.0219
v  -0.2233 1.9991 0.0450
v  -0.1465 2.0668 -0.0041
v  -0.1592 2.0668 0.0266
v  -0.1900 2.0668 -0.0478
v  -0.1593 2.0668 -0.0351
v  -0.2338 2.0668 -0.0041
v  -0.2210 2.0668 -0.0348
v  -0.1901 2.0668 0.0394
v  -0.2210 2.0668 0.0270
v  -0.1901 2.1723 -0.0042
v  -0.1592 2.1542 -0.0351
v  -0.1901 2.1542 -0.0479
v  -0.1464 2.1542 -0.0042
v  -0.1592 2.1542 0.0267
v  -0.1901 2.1542 0.0395
v  -0.2210 2.1542 0.0267
v  -0.2339 2.1542 -0.0042
v  -0.2210 2.1542 -0.0351
v  -0.1464 2.1105 -0.0479
v  -0.1901 2.1105 -0.0660
v  -0.1283 2.1105 -0.0042
v  -0.1464 2.1105 0.0395
v  -0.1901 2.1105 0.0576
v  -0.2339 2.1105 0.0395
v  -0.2520 2.1105 -0.0042
v  -0.2339 2.1105 -0.0479
# 53 vertices

vn -0.0000 -0.0803 -0.9968
vn -0.0000 -0.2027 -0.9792
vn -0.0000 -0.8741 -0.4858
vn -0.0000 -0.1946 -0.9809
vn -0.0000 -1.0000 0.0000
vn 0.0000 -0.1868 0.9824
vn 0.0000 -0.9266 0.3761
vn 0.0000 -0.0069 1.0000
vn 0.0000 0.0821 0.9966
vn 0.9978 -0.0647 0.0110
vn 0.9981 -0.0506 0.0352
vn 0.9994 -0.0339 -0.0112
vn 0.9942 -0.0894 -0.0598
vn 1.0000 -0.0061 -0.0022
vn 1.0000 0.0035 -0.0001
vn 1.0000 -0.0094 0.0001
vn 0.9997 0.0231 -0.0003
vn 0.9832 0.1745 -0.0542
vn 1.0000 -0.0000 -0.0000
vn -0.8259 0.0165 -0.5636
vn -0.8331 0.0205 -0.5527
vn -0.8542 -0.0563 -0.5169
vn -0.8644 0.0153 -0.5026
vn -0.9866 -0.1363 -0.0901
vn -0.9991 0.0432 -0.0006
vn -0.9996 0.0280 -0.0087
vn -0.9990 -0.0444 0.0006
vn -0.9559 -0.0379 0.2914
vn -0.9968 -0.0564 0.0574
vn -1.0000 0.0000 0.0000
vn 0.7624 0.5312 -0.3695
vn 0.7699 0.5206 -0.3691
vn 0.7836 0.5005 -0.3681
vn 0.8014 0.4727 -0.3664
vn -0.0000 0.4458 -0.8951
vn 0.0008 0.4466 -0.8947
vn -0.8518 0.4214 -0.3111
vn -0.8247 0.0199 -0.5652
vn 0.0000 0.9707 0.2404
vn 0.0010 0.9704 0.2413
vn 0.9950 -0.0742 -0.0661
vn 0.9988 0.0165 -0.0461
vn 0.9923 -0.0428 0.1165
vn 0.9132 0.1556 0.3766
vn -0.0673 -0.1969 -0.9781
vn -0.0030 -0.1237 -0.9923
vn 0.0663 -0.1974 -0.9781
vn 0.3791 -0.0950 -0.9204
vn -0.9890 -0.0529 0.1383
vn -0.9991 0.0058 -0.0422
vn -0.9956 -0.0806 -0.0473
vn -0.9222 -0.0228 -0.3860
vn 0.1102 0.1370 0.9844
vn 0.0014 0.2188 0.9758
vn -0.1059 0.1332 0.9854
vn -0.3610 0.2514 0.8980
vn -0.0001 1.0000 -0.0000
vn -0.9428 0.0772 0.3244
vn -0.9398 0.0797 0.3322
vn -0.9391 0.2997 0.1681
vn -0.9901 -0.1404 0.0020
vn -0.9307 0.0434 0.3632
vn -0.9997 0.0231 -0.0003
vn -0.0002 1.0000 -0.0001
vn -0.3861 -0.0927 -0.9178
vn -0.0001 1.0000 0.0000
vn -0.9159 0.1328 0.3788
vn -0.0001 1.0000 -0.0001
vn 0.3686 0.2625 0.8918
vn -0.0000 1.0000 0.0000
vn 0.9246 -0.0208 -0.3805
vn 0.1565 0.9125 -0.3780
vn 0.3780 0.9125 -0.1565
vn 0.3780 0.9125 0.1566
vn 0.1566 0.9125 0.3780
vn -0.1566 0.9125 0.3780
vn -0.3780 0.9125 0.1566
vn -0.3780 0.9125 -0.1565
vn -0.1565 0.9125 -0.3780
vn 0.3574 0.3574 -0.8629
vn 0.8629 0.3574 -0.3574
vn 0.8629 0.3574 0.3574
vn 0.8628 0.3574 0.3574
vn 0.3574 0.3574 0.8629
vn 0.3574 0.3574 0.8628
vn -0.3574 0.3574 0.8629
vn -0.8629 0.3574 0.3574
vn -0.8629 0.3574 -0.3574
vn -0.3574 0.3574 -0.8629
vn 0.3554 -0.3594 -0.8628
vn 0.3573 -0.3579 -0.8627
vn 0.8635 -0.3578 -0.3554
vn 0.8621 -0.3595 -0.3571
vn 0.8632 -0.3581 0.3560
vn 0.8630 -0.3569 0.3574
vn 0.3567 -0.3579 0.8629
vn 0.3573 -0.3584 0.8625
vn -0.3478 -0.3609 0.8653
vn -0.3580 -0.3530 0.8644
vn -0.8633 -0.3567 0.3570
vn -0.8630 -0.3571 0.3575
vn -0.8612 -0.3585 -0.3604
vn -0.8615 -0.3612 -0.3568
vn -0.3611 -0.3646 -0.8583
vn -0.3570 -0.3605 -0.8618
# 105 vertex normals

vt -311.6262 42.3325 -408.5791
vt -484.6022 42.3325 -408.5803
vt -254.4105 48.3330 -101.5810
vt -427.3864 48.3330 -101.5810
vt -321.0203 16.1613 -929.7039
vt -505.1766 16.1613 -929.7039
vt -319.8246 3.0558 -959.7206
vt -506.3721 3.0557 -959.7206
vt -319.8246 0.9439 -1003.5856
vt -506.3721 0.9439 -1003.5856
vt -319.8246 -5.9538 -1003.5853
vt -506.3720 -5.9538 -1003.5853
vt -319.8245 -8.6699 -944.7122
vt -506.3720 -8.6699 -944.7122
vt -321.0200 -18.8666 -927.6556
vt -505.1763 -18.8666 -927.6556
vt -311.6258 -19.4503 -578.9639
vt -531.2110 -19.4504 -578.9639
vt -254.4100 -6.7469 56.3318
vt -473.9953 -6.7469 56.3318
vt -321.0202 2.5675 -928.9084
vt -552.1996 21.3911 -24.3401
vt -609.4153 11.9799 -492.2851
vt -505.1765 -1.3388 -928.6811
vt -341.6593 34.5324 12.4554
vt -338.9145 13.4686 76.9604
vt -488.2387 34.5444 12.5176
vt -487.9433 13.4549 77.0419
vt -319.9453 28.9385 165.0494
vt -347.6663 19.2387 165.0513
vt -415.1455 42.7223 165.0464
vt -347.8494 38.7225 165.0500
vt -510.8550 28.9329 165.0418
vt -482.7681 38.6167 165.0415
vt -415.1703 15.2125 165.0473
vt -482.7679 19.1332 165.0428
vt -415.3575 28.9750 302.3158
vt -347.7599 38.7291 278.7692
vt -415.3576 42.7693 278.7675
vt -319.7602 28.9750 278.7687
vt -347.7619 19.2214 278.7680
vt -415.3574 15.1811 278.7685
vt -482.9551 19.2214 278.7680
vt -510.9548 28.9752 278.7686
vt -482.9552 38.7291 278.7692
vt -319.7603 42.7694 221.9220
vt -415.3577 48.4832 221.9217
vt -280.1643 28.9753 221.9219
vt -319.7601 15.1809 221.9207
vt -415.3574 9.4673 221.9209
vt -510.9547 15.1811 221.9206
vt -550.5528 28.9753 221.9219
vt -510.9550 42.7694 221.9220
# 53 texture coords

g Bip001_R_Thigh
f 1/1/1 2/2/1 3/3/1 
f 2/2/1 4/4/1 3/3/1 
f 5/5/2 6/6/2 1/1/2 
f 6/6/2 2/2/2 1/1/2 
f 7/7/3 8/8/3 5/5/3 
f 8/8/3 6/6/3 5/5/3 
f 9/9/4 10/10/4 7/7/4 
f 10/10/4 8/8/4 7/7/4 
f 11/11/5 12/12/5 9/9/5 
f 12/12/5 10/10/5 9/9/5 
f 13/13/6 14/14/6 11/11/6 
f 14/14/6 12/12/6 11/11/6 
f 15/15/7 16/16/7 13/13/7 
f 16/16/7 14/14/7 13/13/7 
f 17/17/8 18/18/8 15/15/8 
f 18/18/8 16/16/8 15/15/8 
f 19/19/9 20/20/9 17/17/9 
f 20/20/9 18/18/9 17/17/9 
f 3/3/10 19/19/11 17/17/12 
f 1/1/13 3/3/10 17/17/12 
f 5/5/14 1/1/13 17/17/12 
f 21/21/15 17/17/12 15/15/16 
f 7/7/17 21/21/15 15/15/16 
f 7/7/18 15/15/18 13/13/18 
f 7/7/19 13/13/19 11/11/19 
f 9/9/19 7/7/19 11/11/19 
f 22/22/20 4/4/21 23/23/22 
f 4/4/21 2/2/23 23/23/22 
f 2/2/23 6/6/24 23/23/22 
f 16/16/25 24/24/25 14/14/25 
f 24/24/26 8/8/26 14/14/26 
f 16/16/27 18/18/28 24/24/29 
f 14/14/30 8/8/30 12/12/30 
f 8/8/30 10/10/30 12/12/30 
f 3/3/31 25/25/32 19/19/33 
f 25/25/32 26/26/34 19/19/33 
f 4/4/35 27/27/35 3/3/35 
f 27/27/36 25/25/36 3/3/36 
f 22/22/37 28/28/37 27/27/37 
f 22/22/20 27/27/38 4/4/21 
f 19/19/39 26/26/39 20/20/39 
f 26/26/40 28/28/40 20/20/40 
f 25/25/41 29/29/42 26/26/43 
f 29/29/42 30/30/44 26/26/43 
f 27/27/45 31/31/46 25/25/47 
f 31/31/46 32/32/48 25/25/47 
f 28/28/49 33/33/50 27/27/51 
f 33/33/50 34/34/52 27/27/51 
f 26/26/53 35/35/54 28/28/55 
f 35/35/54 36/36/56 28/28/55 
f 35/35/57 32/32/57 36/36/57 
f 36/36/57 32/32/57 31/31/57 
f 20/20/58 22/22/59 18/18/28 
f 20/20/60 28/28/60 22/22/60 
f 23/23/22 6/6/24 24/24/61 
f 22/22/59 23/23/62 18/18/28 
f 7/7/17 5/5/14 21/21/15 
f 5/5/14 17/17/12 21/21/15 
f 24/24/29 18/18/28 23/23/62 
f 24/24/63 6/6/63 8/8/63 
f 33/33/64 31/31/64 34/34/64 
f 34/34/65 31/31/46 27/27/45 
f 36/36/66 31/31/66 33/33/66 
f 36/36/67 33/33/50 28/28/49 
f 30/30/68 29/29/68 35/35/68 
f 30/30/69 35/35/54 26/26/53 
f 29/29/70 32/32/70 35/35/70 
f 32/32/71 29/29/42 25/25/41 
f 37/37/72 38/38/72 39/39/72 
f 37/37/73 40/40/73 38/38/73 
f 37/37/74 41/41/74 40/40/74 
f 37/37/75 42/42/75 41/41/75 
f 37/37/76 43/43/76 42/42/76 
f 37/37/77 44/44/77 43/43/77 
f 37/37/78 45/45/78 44/44/78 
f 37/37/79 39/39/79 45/45/79 
f 39/39/80 46/46/80 47/47/80 
f 39/39/80 38/38/80 46/46/80 
f 38/38/81 48/48/81 46/46/81 
f 38/38/81 40/40/81 48/48/81 
f 40/40/82 49/49/82 48/48/82 
f 40/40/83 41/41/83 49/49/83 
f 41/41/84 50/50/84 49/49/84 
f 41/41/85 42/42/85 50/50/85 
f 42/42/86 51/51/86 50/50/86 
f 42/42/86 43/43/86 51/51/86 
f 43/43/87 52/52/87 51/51/87 
f 43/43/87 44/44/87 52/52/87 
f 44/44/88 53/53/88 52/52/88 
f 44/44/88 45/45/88 53/53/88 
f 45/45/89 47/47/89 53/53/89 
f 45/45/89 39/39/89 47/47/89 
f 47/47/90 32/32/90 31/31/90 
f 47/47/91 46/46/91 32/32/91 
f 46/46/92 29/29/92 32/32/92 
f 46/46/93 48/48/93 29/29/93 
f 48/48/94 30/30/94 29/29/94 
f 48/48/95 49/49/95 30/30/95 
f 49/49/96 35/35/96 30/30/96 
f 49/49/97 50/50/97 35/35/97 
f 50/50/98 36/36/98 35/35/98 
f 50/50/99 51/51/99 36/36/99 
f 51/51/100 33/33/100 36/36/100 
f 51/51/101 52/52/101 33/33/101 
f 52/52/102 34/34/102 33/33/102 
f 52/52/103 53/53/103 34/34/103 
f 53/53/104 31/31/104 34/34/104 
f 53/53/105 47/47/105 31/31/105 
# 108 faces

